Plot: A hacker is literally abducted into the world of a computer and forced to participate in gladiatorial games where his only chance of escape is with the help of a heroic security program.
Cast:
Jeff Bridges ... Kevin Flynn / Clu
Bruce Boxleitner ... Alan Bradley / Tron
David Warner ... Ed Dillinger / Sark / Master Control Program
Cindy Morgan ... Lora / Yori
Barnard Hughes ... Dr. Walter Gibbs / Dumont
Dan Shor ... Ram / Popcorn Co-Worker
Peter Jurasik ... Crom
Tony Stephano ... Peter / Sark's Lieutenant
Craig Chudy ... Warrior #1
Vince Deadrick Jr.... Warrior #2 (as Vince Deadrick)
Sam Schatz ... Expert Disc Warrior]
Jackson Bostwick ... Head Guard
David S. Cass Sr. ... Factory Guard (as Dave Cass)
Gerald Berns ... Guard #1
Bob Neill ... Guard #2

Release Date: 9 July 1982 (USA)
Genre: Action | Adventure | Sci-Fi  http://www.imdb.com/title/tt0084827/

File Name
Tron 1982 720p HDTV H264.mp4
File Size
Format : MPEG-4
Format profile : Base Media
Codec ID : isom
File size : 2.04 GiB
Duration : 1h 35mn
Overall bit rate : 3 050 Kbps
Video
ID : 1
Format : AVC
Format/Info : Advanced Video Codec
Format profile : High@L4.1
Format settings, CABAC : Yes
Format settings, ReFrames : 3 frames
Codec ID : avc1
Codec ID/Info : Advanced Video Coding
Duration : 1h 35mn
Bit rate mode : Variable
Bit rate : 2 599 Kbps
Maximum bit rate : 14.1 Mbps
Width : 1 280 pixels
Height : 560 pixels
Display aspect ratio : 2.25:1
Frame rate mode : Constant
Frame rate : 23.976 fps
Resolution : 24 bits
Colorimetry : 4:2:0
Scan type : Progressive
Bits/(Pixel*Frame) : 0.151
Stream size : 1.74 GiB (85%)
Audio #1
ID : 2
Format : AAC
Format/Info : Advanced Audio Codec
Format version : Version 4
Format profile : LC
Format settings, SBR : No
Codec ID : 40
Duration : 1h 35mn
Bit rate mode : Variable
Bit rate : 128 Kbps
Maximum bit rate : 133 Kbps
Channel(s) : 2 channels
Channel positions : L R
Sampling rate : 48.0 KHz
Resolution : 16 bits
Stream size : 87.6 MiB (4%)
Audio #2
ID : 3
Format : AAC
Format/Info : Advanced Audio Codec
Format version : Version 4
Format profile : LC
Format settings, SBR : No
Codec ID : 40
Duration : 1h 35mn
Bit rate mode : Variable
Bit rate : 320 Kbps
Maximum bit rate : 337 Kbps
Channel(s) : 6 channels
Channel positions : Front: L C R, Rear: L R, LFE
Sampling rate : 48.0 KHz
Resolution : 16 bits
Stream size : 219 MiB (10%)
English SRT : ----
Language : English
